<svg xmlns="http://www.w3.org/2000/svg" viewBox="0 0 800 600">
  <!-- Foso/estructura exterior -->
  <rect x="150" y="100" width="500" height="450" fill="#555555" rx="10" />
  
  <!-- Interior del horno (cavidad) -->
  <rect x="200" y="150" width="400" height="350" fill="#111111" />
  
  <!-- Base inferior con ladrillos refractarios -->
  <rect x="200" y="500" width="400" height="50" fill="#993333" />
  <line x1="220" y1="500" x2="220" y2="550" stroke="#772222" stroke-width="2" />
  <line x1="260" y1="500" x2="260" y2="550" stroke="#772222" stroke-width="2" />
  <line x1="300" y1="500" x2="300" y2="550" stroke="#772222" stroke-width="2" />
  <line x1="340" y1="500" x2="340" y2="550" stroke="#772222" stroke-width="2" />
  <line x1="380" y1="500" x2="380" y2="550" stroke="#772222" stroke-width="2" />
  <line x1="420" y1="500" x2="420" y2="550" stroke="#772222" stroke-width="2" />
  <line x1="460" y1="500" x2="460" y2="550" stroke="#772222" stroke-width="2" />
  <line x1="500" y1="500" x2="500" y2="550" stroke="#772222" stroke-width="2" />
  <line x1="540" y1="500" x2="540" y2="550" stroke="#772222" stroke-width="2" />
  <line x1="580" y1="500" x2="580" y2="550" stroke="#772222" stroke-width="2" />
  
  <!-- Paredes laterales con ladrillos refractarios -->
  <rect x="200" y="150" width="20" height="350" fill="#993333" />
  <rect x="580" y="150" width="20" height="350" fill="#993333" />
  
  <!-- Fuego y calor -->
  <ellipse cx="400" cy="480" rx="180" ry="30" fill="url(#fireGradient)" />
  
  <!-- Tapa / cubierta del horno -->
  <rect x="175" y="85" width="450" height="15" fill="#777777" />
  <rect x="300" y="50" width="200" height="35" fill="#777777" rx="5" />
  <rect x="325" y="20" width="150" height="30" fill="#777777" rx="5" />
  
  <!-- Mecanismo de elevación -->
  <rect x="350" y="0" width="100" height="20" fill="#888888" rx="5" />
  <line x1="360" y1="20" x2="360" y2="50" stroke="#666666" stroke-width="4" />
  <line x1="440" y1="20" x2="440" y2="50" stroke="#666666" stroke-width="4" />
  
  <!-- Tubos o conductos para combustible -->
  <rect x="130" y="400" width="70" height="20" fill="#666666" rx="10" />
  <rect x="600" y="400" width="70" height="20" fill="#666666" rx="10" />
  
  <!-- Pieza siendo calentada (ejemplo) -->
  <rect x="250" y="300" width="300" height="50" fill="#bb5500" />
  
  <!-- Llamas y calor -->
  <path d="M260 450 Q300 370 340 450 Q380 370 420 450 Q460 370 500 450 Q540 370 580 450" fill="none" stroke="url(#flameGradient)" stroke-width="20" stroke-linecap="round" />
  
  <!-- Gradientes -->
  <defs>
    <linearGradient id="fireGradient" x1="0%" y1="0%" x2="0%" y2="100%">
      <stop offset="0%" stop-color="#ff9900" />
      <stop offset="100%" stop-color="#ff0000" />
    </linearGradient>
    
    <linearGradient id="flameGradient" x1="0%" y1="0%" x2="0%" y2="100%">
      <stop offset="0%" stop-color="#ffdd00" />
      <stop offset="50%" stop-color="#ff6600" />
      <stop offset="100%" stop-color="#ff0000" />
    </linearGradient>
  </defs>
</svg>
